0
SECTION
2
HEADER
9
$INSUNITS
70
4
9
$ACADVER
1
AC1014
9
$HANDSEED
5
FFFF
0
ENDSEC
0
SECTION
2
TABLES
0
TABLE
2
VPORT
5
8
100
AcDbSymbolTable
0
ENDTAB
0
TABLE
2
LTYPE
5
5
100
AcDbSymbolTable
0
LTYPE
5
14
100
AcDbSymbolTableRecord
100
AcDbLinetypeTableRecord
2
BYBLOCK
70
0
0
LTYPE
5
15
100
AcDbSymbolTableRecord
100
AcDbLinetypeTableRecord
2
BYLAYER
70
0
0
ENDTAB
0
TABLE
2
LAYER
5
2
100
AcDbSymbolTable
70
2
0
LAYER
5
50
100
AcDbSymbolTableRecord
100
AcDbLayerTableRecord
2
0
70
0
6
CONTINUOUS
0
ENDTAB
0
TABLE
2
STYLE
5
3
100
AcDbSymbolTable
70
1
0
STYLE
5
11
100
AcDbSymbolTableRecord
100
AcDbTextStyleTableRecord
2
STANDARD
70
0
0
ENDTAB
0
TABLE
2
VIEW
5
6
100
AcDbSymbolTable
70
0
0
ENDTAB
0
TABLE
2
UCS
5
7
100
AcDbSymbolTable
70
0
0
ENDTAB
0
TABLE
2
APPID
5
9
100
AcDbSymbolTable
70
2
0
APPID
5
12
100
AcDbSymbolTableRecord
100
AcDbRegAppTableRecord
2
ACAD
70
0
0
ENDTAB
0
TABLE
2
DIMSTYLE
5
A
100
AcDbSymbolTable
70
1
0
ENDTAB
0
TABLE
2
BLOCK_RECORD
5
1
100
AcDbSymbolTable
70
1
0
BLOCK_RECORD
5
1F
100
AcDbSymbolTableRecord
100
AcDbBlockTableRecord
2
*MODEL_SPACE
0
BLOCK_RECORD
5
1B
100
AcDbSymbolTableRecord
100
AcDbBlockTableRecord
2
*PAPER_SPACE
0
ENDTAB
0
ENDSEC
0
SECTION
2
BLOCKS
0
BLOCK
5
20
100
AcDbEntity
100
AcDbBlockBegin
2
*MODEL_SPACE
0
ENDBLK
5
21
100
AcDbEntity
100
AcDbBlockEnd
0
BLOCK
5
1C
100
AcDbEntity
100
AcDbBlockBegin
2
*PAPER_SPACE
0
ENDBLK
5
1D
100
AcDbEntity
100
AcDbBlockEnd
0
ENDSEC
0
SECTION
2
ENTITIES
0
LWPOLYLINE
5
100
100
AcDbEntity
8
0
100
AcDbPolyline
90
28
70
1
43
0.0
10
0
20
16.81093271630202
10
-35
20
16.81093271630203
10
-35
20
11.055650134826273
10
-30
20
11.055650134826269
10
-30
20
1.5450849718747395
10
-70
20
1.5450849718747395
10
-70
20
11.055650134826271
10
-65
20
11.055650134826269
10
-65
20
15.810932716302037
10
-135
20
15.810932716302039
10
-135
20
11.055650134826273
10
-130
20
11.055650134826269
10
-130
20
1.5450849718747395
10
-170
20
1.5450849718747395
10
-170
20
11.055650134826271
10
-165
20
11.055650134826269
10
-165
20
15.810932716302037
10
-235
20
15.810932716302039
10
-235
20
11.055650134826273
10
-230
20
11.055650134826269
10
-230
20
1.5450849718747395
10
-270
20
1.5450849718747395
10
-270
20
11.055650134826271
10
-265
20
11.055650134826269
10
-265
20
15.810932716302037
10
-300
20
15.81093271630202
10
-300
20
600
10
0
20
600
0
LWPOLYLINE
5
101
100
AcDbEntity
8
0
100
AcDbPolyline
90
4
70
1
43
0.0
10
-220.00000000000003
20
470
10
-220.00000000000003
20
530
10
-225.00000000000003
20
530
10
-225.00000000000003
20
470
0
LWPOLYLINE
5
102
100
AcDbEntity
8
0
100
AcDbPolyline
90
4
70
1
43
0.0
10
-220.00000000000003
20
304.99999999999994
10
-220.00000000000003
20
364.99999999999989
10
-225.00000000000003
20
364.99999999999994
10
-225.00000000000003
20
304.99999999999994
0
LWPOLYLINE
5
103
100
AcDbEntity
8
0
100
AcDbPolyline
90
4
70
1
43
0.0
10
-220.00000000000003
20
140
10
-220.00000000000003
20
199.99999999999997
10
-225.00000000000003
20
199.99999999999997
10
-225.00000000000003
20
140
0
LWPOLYLINE
5
104
100
AcDbEntity
8
0
100
AcDbPolyline
90
4
70
1
43
0.0
10
-70.000000000000028
20
470
10
-70.000000000000028
20
530
10
-75.000000000000028
20
530
10
-75.000000000000028
20
470
0
LWPOLYLINE
5
105
100
AcDbEntity
8
0
100
AcDbPolyline
90
4
70
1
43
0.0
10
-70.000000000000028
20
304.99999999999994
10
-70.000000000000028
20
364.99999999999989
10
-75.000000000000028
20
364.99999999999994
10
-75.000000000000028
20
304.99999999999994
0
LWPOLYLINE
5
106
100
AcDbEntity
8
0
100
AcDbPolyline
90
4
70
1
43
0.0
10
-70.000000000000028
20
140
10
-70.000000000000028
20
199.99999999999997
10
-75.000000000000028
20
199.99999999999997
10
-75.000000000000028
20
140
0
ENDSEC
0
SECTION
2
OBJECTS
0
DICTIONARY
5
C
100
AcDbDictionary
3
ACAD_GROUP
350
D
3
ACAD_MLINESTYLE
350
17
0
DICTIONARY
5
D
100
AcDbDictionary
0
DICTIONARY
5
1A
330
C
100
AcDbDictionary
0
DICTIONARY
5
17
100
AcDbDictionary
0
ENDSEC
0
EOF
