0
SECTION
2
HEADER
9
$INSUNITS
70
4
9
$ACADVER
1
AC1014
9
$HANDSEED
5
FFFF
0
ENDSEC
0
SECTION
2
TABLES
0
TABLE
2
VPORT
5
8
100
AcDbSymbolTable
0
ENDTAB
0
TABLE
2
LTYPE
5
5
100
AcDbSymbolTable
0
LTYPE
5
14
100
AcDbSymbolTableRecord
100
AcDbLinetypeTableRecord
2
BYBLOCK
70
0
0
LTYPE
5
15
100
AcDbSymbolTableRecord
100
AcDbLinetypeTableRecord
2
BYLAYER
70
0
0
ENDTAB
0
TABLE
2
LAYER
5
2
100
AcDbSymbolTable
70
2
0
LAYER
5
50
100
AcDbSymbolTableRecord
100
AcDbLayerTableRecord
2
0
70
0
6
CONTINUOUS
0
ENDTAB
0
TABLE
2
STYLE
5
3
100
AcDbSymbolTable
70
1
0
STYLE
5
11
100
AcDbSymbolTableRecord
100
AcDbTextStyleTableRecord
2
STANDARD
70
0
0
ENDTAB
0
TABLE
2
VIEW
5
6
100
AcDbSymbolTable
70
0
0
ENDTAB
0
TABLE
2
UCS
5
7
100
AcDbSymbolTable
70
0
0
ENDTAB
0
TABLE
2
APPID
5
9
100
AcDbSymbolTable
70
2
0
APPID
5
12
100
AcDbSymbolTableRecord
100
AcDbRegAppTableRecord
2
ACAD
70
0
0
ENDTAB
0
TABLE
2
DIMSTYLE
5
A
100
AcDbSymbolTable
70
1
0
ENDTAB
0
TABLE
2
BLOCK_RECORD
5
1
100
AcDbSymbolTable
70
1
0
BLOCK_RECORD
5
1F
100
AcDbSymbolTableRecord
100
AcDbBlockTableRecord
2
*MODEL_SPACE
0
BLOCK_RECORD
5
1B
100
AcDbSymbolTableRecord
100
AcDbBlockTableRecord
2
*PAPER_SPACE
0
ENDTAB
0
ENDSEC
0
SECTION
2
BLOCKS
0
BLOCK
5
20
100
AcDbEntity
100
AcDbBlockBegin
2
*MODEL_SPACE
0
ENDBLK
5
21
100
AcDbEntity
100
AcDbBlockEnd
0
BLOCK
5
1C
100
AcDbEntity
100
AcDbBlockBegin
2
*PAPER_SPACE
0
ENDBLK
5
1D
100
AcDbEntity
100
AcDbBlockEnd
0
ENDSEC
0
SECTION
2
ENTITIES
0
LWPOLYLINE
5
100
100
AcDbEntity
8
0
100
AcDbPolyline
90
52
70
1
43
0.0
10
585
20
-170
10
575
20
-170
10
575
20
-165
10
570
20
-165
10
570
20
-235
10
575
20
-235
10
575
20
-230
10
585
20
-230
10
585
20
-270
10
575
20
-270
10
575
20
-265
10
570
20
-265
10
570
20
-300
10
-15
20
-300
10
-15
20
-265
10
-10
20
-265
10
-10
20
-270
10
0
20
-270
10
0
20
-230
10
-10
20
-230
10
-10
20
-235
10
-15
20
-235
10
-15
20
-165
10
-10
20
-165
10
-10
20
-170
10
0
20
-170
10
0
20
-130
10
-10
20
-130
10
-10
20
-135
10
-15
20
-135
10
-15
20
-65
10
-10
20
-65
10
-10
20
-70
10
0
20
-70
10
0
20
-30
10
-10
20
-30
10
-10
20
-35
10
-15
20
-35
10
-15
20
0
10
570
20
0
10
570
20
-35
10
575
20
-35
10
575
20
-30
10
585
20
-30
10
585
20
-70
10
575
20
-70
10
575
20
-65
10
570
20
-65
10
570
20
-135
10
575
20
-135
10
575
20
-130
10
585
20
-130
0
LINE
5
101
100
AcDbEntity
8
0
100
AcDbLine
10
485
20
-30
30
0
11
485
21
-270
31
0
0
LINE
5
102
100
AcDbEntity
8
0
100
AcDbLine
10
385
20
-30
30
0
11
385
21
-270
31
0
0
LINE
5
103
100
AcDbEntity
8
0
100
AcDbLine
10
285
20
-30
30
0
11
285
21
-270
31
0
0
LINE
5
104
100
AcDbEntity
8
0
100
AcDbLine
10
185
20
-30
30
0
11
185
21
-270
31
0
0
LINE
5
105
100
AcDbEntity
8
0
100
AcDbLine
10
85
20
-30
30
0
11
85
21
-270
31
0
0
LINE
5
106
100
AcDbEntity
8
0
100
AcDbLine
10
565
20
-30
30
0
11
565
21
-100
31
0
0
LINE
5
107
100
AcDbEntity
8
0
100
AcDbLine
10
555
20
-30
30
0
11
555
21
-100
31
0
0
LINE
5
108
100
AcDbEntity
8
0
100
AcDbLine
10
545
20
-30
30
0
11
545
21
-100
31
0
0
LINE
5
109
100
AcDbEntity
8
0
100
AcDbLine
10
535
20
-30
30
0
11
535
21
-100
31
0
0
LINE
5
110
100
AcDbEntity
8
0
100
AcDbLine
10
525
20
-30
30
0
11
525
21
-100
31
0
0
LINE
5
111
100
AcDbEntity
8
0
100
AcDbLine
10
515
20
-30
30
0
11
515
21
-100
31
0
0
LINE
5
112
100
AcDbEntity
8
0
100
AcDbLine
10
505
20
-30
30
0
11
505
21
-100
31
0
0
LINE
5
113
100
AcDbEntity
8
0
100
AcDbLine
10
495
20
-30
30
0
11
495
21
-100
31
0
0
LINE
5
114
100
AcDbEntity
8
0
100
AcDbLine
10
485
20
-30
30
0
11
485
21
-100
31
0
0
LINE
5
115
100
AcDbEntity
8
0
100
AcDbLine
10
475
20
-30
30
0
11
475
21
-100
31
0
0
LINE
5
116
100
AcDbEntity
8
0
100
AcDbLine
10
465
20
-30
30
0
11
465
21
-100
31
0
0
LINE
5
117
100
AcDbEntity
8
0
100
AcDbLine
10
455
20
-30
30
0
11
455
21
-100
31
0
0
LINE
5
118
100
AcDbEntity
8
0
100
AcDbLine
10
445
20
-30
30
0
11
445
21
-100
31
0
0
LINE
5
119
100
AcDbEntity
8
0
100
AcDbLine
10
435
20
-30
30
0
11
435
21
-100
31
0
0
LINE
5
120
100
AcDbEntity
8
0
100
AcDbLine
10
425
20
-30
30
0
11
425
21
-100
31
0
0
LINE
5
121
100
AcDbEntity
8
0
100
AcDbLine
10
415
20
-30
30
0
11
415
21
-100
31
0
0
LINE
5
122
100
AcDbEntity
8
0
100
AcDbLine
10
405
20
-30
30
0
11
405
21
-100
31
0
0
LINE
5
123
100
AcDbEntity
8
0
100
AcDbLine
10
395
20
-30
30
0
11
395
21
-100
31
0
0
LINE
5
124
100
AcDbEntity
8
0
100
AcDbLine
10
385
20
-30
30
0
11
385
21
-100
31
0
0
LINE
5
125
100
AcDbEntity
8
0
100
AcDbLine
10
375
20
-30
30
0
11
375
21
-100
31
0
0
LINE
5
126
100
AcDbEntity
8
0
100
AcDbLine
10
365
20
-30
30
0
11
365
21
-100
31
0
0
LINE
5
127
100
AcDbEntity
8
0
100
AcDbLine
10
355
20
-30
30
0
11
355
21
-100
31
0
0
LINE
5
128
100
AcDbEntity
8
0
100
AcDbLine
10
345
20
-30
30
0
11
345
21
-100
31
0
0
LINE
5
129
100
AcDbEntity
8
0
100
AcDbLine
10
335
20
-30
30
0
11
335
21
-100
31
0
0
LINE
5
130
100
AcDbEntity
8
0
100
AcDbLine
10
325
20
-30
30
0
11
325
21
-100
31
0
0
LINE
5
131
100
AcDbEntity
8
0
100
AcDbLine
10
315
20
-30
30
0
11
315
21
-100
31
0
0
LINE
5
132
100
AcDbEntity
8
0
100
AcDbLine
10
305
20
-30
30
0
11
305
21
-100
31
0
0
LINE
5
133
100
AcDbEntity
8
0
100
AcDbLine
10
295
20
-30
30
0
11
295
21
-100
31
0
0
LINE
5
134
100
AcDbEntity
8
0
100
AcDbLine
10
285
20
-30
30
0
11
285
21
-100
31
0
0
LINE
5
135
100
AcDbEntity
8
0
100
AcDbLine
10
275
20
-30
30
0
11
275
21
-100
31
0
0
LINE
5
136
100
AcDbEntity
8
0
100
AcDbLine
10
265
20
-30
30
0
11
265
21
-100
31
0
0
LINE
5
137
100
AcDbEntity
8
0
100
AcDbLine
10
255
20
-30
30
0
11
255
21
-100
31
0
0
LINE
5
138
100
AcDbEntity
8
0
100
AcDbLine
10
245
20
-30
30
0
11
245
21
-100
31
0
0
LINE
5
139
100
AcDbEntity
8
0
100
AcDbLine
10
235
20
-30
30
0
11
235
21
-100
31
0
0
LINE
5
140
100
AcDbEntity
8
0
100
AcDbLine
10
225
20
-30
30
0
11
225
21
-100
31
0
0
LINE
5
141
100
AcDbEntity
8
0
100
AcDbLine
10
215
20
-30
30
0
11
215
21
-100
31
0
0
LINE
5
142
100
AcDbEntity
8
0
100
AcDbLine
10
205
20
-30
30
0
11
205
21
-100
31
0
0
LINE
5
143
100
AcDbEntity
8
0
100
AcDbLine
10
195
20
-30
30
0
11
195
21
-100
31
0
0
LINE
5
144
100
AcDbEntity
8
0
100
AcDbLine
10
185
20
-30
30
0
11
185
21
-100
31
0
0
LINE
5
145
100
AcDbEntity
8
0
100
AcDbLine
10
175
20
-30
30
0
11
175
21
-100
31
0
0
LINE
5
146
100
AcDbEntity
8
0
100
AcDbLine
10
165
20
-30
30
0
11
165
21
-100
31
0
0
LINE
5
147
100
AcDbEntity
8
0
100
AcDbLine
10
155
20
-30
30
0
11
155
21
-100
31
0
0
LINE
5
148
100
AcDbEntity
8
0
100
AcDbLine
10
145
20
-30
30
0
11
145
21
-100
31
0
0
LINE
5
149
100
AcDbEntity
8
0
100
AcDbLine
10
135
20
-30
30
0
11
135
21
-100
31
0
0
LINE
5
150
100
AcDbEntity
8
0
100
AcDbLine
10
125
20
-30
30
0
11
125
21
-100
31
0
0
LINE
5
151
100
AcDbEntity
8
0
100
AcDbLine
10
115
20
-30
30
0
11
115
21
-100
31
0
0
LINE
5
152
100
AcDbEntity
8
0
100
AcDbLine
10
105
20
-30
30
0
11
105
21
-100
31
0
0
LINE
5
153
100
AcDbEntity
8
0
100
AcDbLine
10
95
20
-30
30
0
11
95
21
-100
31
0
0
LINE
5
154
100
AcDbEntity
8
0
100
AcDbLine
10
85
20
-30
30
0
11
85
21
-100
31
0
0
LINE
5
155
100
AcDbEntity
8
0
100
AcDbLine
10
75
20
-30
30
0
11
75
21
-100
31
0
0
LINE
5
156
100
AcDbEntity
8
0
100
AcDbLine
10
65
20
-30
30
0
11
65
21
-100
31
0
0
LINE
5
157
100
AcDbEntity
8
0
100
AcDbLine
10
55
20
-30
30
0
11
55
21
-100
31
0
0
LINE
5
158
100
AcDbEntity
8
0
100
AcDbLine
10
45
20
-30
30
0
11
45
21
-100
31
0
0
LINE
5
159
100
AcDbEntity
8
0
100
AcDbLine
10
35
20
-30
30
0
11
35
21
-100
31
0
0
LINE
5
160
100
AcDbEntity
8
0
100
AcDbLine
10
25
20
-30
30
0
11
25
21
-100
31
0
0
LINE
5
161
100
AcDbEntity
8
0
100
AcDbLine
10
15
20
-30
30
0
11
15
21
-100
31
0
0
LINE
5
162
100
AcDbEntity
8
0
100
AcDbLine
10
5
20
-30
30
0
11
5
21
-100
31
0
0
LINE
5
163
100
AcDbEntity
8
0
100
AcDbLine
10
-5
20
-30
30
0
11
-5
21
-100
31
0
0
ENDSEC
0
SECTION
2
OBJECTS
0
DICTIONARY
5
C
100
AcDbDictionary
3
ACAD_GROUP
350
D
3
ACAD_MLINESTYLE
350
17
0
DICTIONARY
5
D
100
AcDbDictionary
0
DICTIONARY
5
1A
330
C
100
AcDbDictionary
0
DICTIONARY
5
17
100
AcDbDictionary
0
ENDSEC
0
EOF
