999
"DXF R12 Output" (www.mydxf.blogspot.com)
 0 
SECTION
 2 
HEADER
 9 
$ACADVER
 1 
AC1009
 9 
$EXTMIN
 10 
 0 
 20 
 0 
 9 
$EXTMAX
 10 
 8.5 
 20 
 11 
 0 
ENDSEC
 0 
SECTION
 2 
ENTITIES
0
LINE
8
Layer 1
10
3.000000
20
-3.000000
11
-3.000000
21
3.000000
0
LINE
8
Layer 1
10
0.000000
20
-5.000000
11
0.000000
21
5.000000
0
LINE
8
Layer 1
10
8.000000
20
4.000000
11
4.000000
21
8.000000
0
LINE
8
Layer 1
10
6.000000
20
2.000000
11
2.000000
21
6.000000
0
LINE
8
Layer 1
10
4.000000
20
0.000000
11
0.000000
21
4.000000
0
LINE
8
0
10
706.772000
20
1046.930000
11
706.772000
21
1292.599000
0
LINE
8
0
10
706.772000
20
1292.599000
11
491.339000
21
1651.650000
0
LINE
8
0
10
491.339000
20
1651.650000
11
188.976000
21
1651.650000
0
LINE
8
0
10
188.976000
20
1651.650000
11
-26.456700
21
1292.600000
0
LINE
8
0
10
-26.456700
20
1292.600000
11
-26.456700
21
1046.930000
0
LINE
8
0
10
-26.456700
20
1046.930000
11
226.772000
21
1046.930000
0
LINE
8
0
10
226.772000
20
1046.930000
11
226.956945
21
1050.665601
0
LINE
8
0
10
226.956945
20
1050.665601
11
227.504936
21
1054.337929
0
LINE
8
0
10
227.504936
20
1054.337929
11
228.405709
21
1057.922202
0
LINE
8
0
10
228.405709
20
1057.922202
11
229.648996
21
1061.393635
0
LINE
8
0
10
229.648996
20
1061.393635
11
231.224533
21
1064.727446
0
LINE
8
0
10
231.224533
20
1064.727446
11
233.122054
21
1067.898852
0
LINE
8
0
10
233.122054
20
1067.898852
11
235.331294
21
1070.883068
0
LINE
8
0
10
235.331294
20
1070.883068
11
237.841987
21
1073.655313
0
LINE
8
0
10
237.841987
20
1073.655313
11
240.614232
21
1076.166006
0
LINE
8
0
10
240.614232
20
1076.166006
11
243.598448
21
1078.375246
0
LINE
8
0
10
243.598448
20
1078.375246
11
246.769854
21
1080.272767
0
LINE
8
0
10
246.769854
20
1080.272767
11
250.103665
21
1081.848304
0
LINE
8
0
10
250.103665
20
1081.848304
11
253.575098
21
1083.091591
0
LINE
8
0
10
253.575098
20
1083.091591
11
257.159371
21
1083.992364
0
LINE
8
0
10
257.159371
20
1083.992364
11
260.831699
21
1084.540355
0
LINE
8
0
10
260.831699
20
1084.540355
11
264.567300
21
1084.725300
0
LINE
8
0
10
264.567300
20
1084.725300
11
415.748300
21
1084.725300
0
LINE
8
0
10
415.748300
20
1084.725300
11
419.483901
21
1084.540355
0
LINE
8
0
10
419.483901
20
1084.540355
11
423.156229
21
1083.992364
0
LINE
8
0
10
423.156229
20
1083.992364
11
426.740502
21
1083.091591
0
LINE
8
0
10
426.740502
20
1083.091591
11
430.211935
21
1081.848304
0
LINE
8
0
10
430.211935
20
1081.848304
11
433.545746
21
1080.272767
0
LINE
8
0
10
433.545746
20
1080.272767
11
436.717152
21
1078.375246
0
LINE
8
0
10
436.717152
20
1078.375246
11
439.701368
21
1076.166006
0
LINE
8
0
10
439.701368
20
1076.166006
11
442.473613
21
1073.655313
0
LINE
8
0
10
442.473613
20
1073.655313
11
444.984306
21
1070.883068
0
LINE
8
0
10
444.984306
20
1070.883068
11
447.193546
21
1067.898852
0
LINE
8
0
10
447.193546
20
1067.898852
11
449.091067
21
1064.727446
0
LINE
8
0
10
449.091067
20
1064.727446
11
450.666604
21
1061.393635
0
LINE
8
0
10
450.666604
20
1061.393635
11
451.909891
21
1057.922202
0
LINE
8
0
10
451.909891
20
1057.922202
11
452.810664
21
1054.337929
0
LINE
8
0
10
452.810664
20
1054.337929
11
453.358655
21
1050.665601
0
LINE
8
0
10
453.358655
20
1050.665601
11
453.543600
21
1046.930000
0
LINE
8
0
10
453.543600
20
1046.930000
11
706.772000
21
1046.930000
0
LINE
8
0
10
12.918000
20
1173.540000
11
12.705556
21
1171.909714
0
LINE
8
0
10
12.705556
20
1171.909714
11
12.087782
21
1170.415219
0
LINE
8
0
10
12.087782
20
1170.415219
11
11.106734
21
1169.129644
0
LINE
8
0
10
11.106734
20
1169.129644
11
9.804468
21
1168.126115
0
LINE
8
0
10
9.804468
20
1168.126115
11
8.285313
21
1167.497518
0
LINE
8
0
10
8.285313
20
1167.497518
11
6.681800
21
1167.287986
0
LINE
8
0
10
6.681800
20
1167.287986
11
5.078287
21
1167.497518
0
LINE
8
0
10
5.078287
20
1167.497518
11
3.559132
21
1168.126115
0
LINE
8
0
10
3.559132
20
1168.126115
11
2.256866
21
1169.129644
0
LINE
8
0
10
2.256866
20
1169.129644
11
1.275818
21
1170.415219
0
LINE
8
0
10
1.275818
20
1170.415219
11
0.658044
21
1171.909714
0
LINE
8
0
10
0.658044
20
1171.909714
11
0.445600
21
1173.540000
0
LINE
8
0
10
0.445600
20
1173.540000
11
0.658044
21
1175.170286
0
LINE
8
0
10
0.658044
20
1175.170286
11
1.275818
21
1176.664781
0
LINE
8
0
10
1.275818
20
1176.664781
11
2.256866
21
1177.950356
0
LINE
8
0
10
2.256866
20
1177.950356
11
3.559132
21
1178.953885
0
LINE
8
0
10
3.559132
20
1178.953885
11
5.078287
21
1179.582482
0
LINE
8
0
10
5.078287
20
1179.582482
11
6.681800
21
1179.792014
0
LINE
8
0
10
6.681800
20
1179.792014
11
8.285313
21
1179.582482
0
LINE
8
0
10
8.285313
20
1179.582482
11
9.804468
21
1178.953885
0
LINE
8
0
10
9.804468
20
1178.953885
11
11.106734
21
1177.950356
0
LINE
8
0
10
11.106734
20
1177.950356
11
12.087782
21
1176.664781
0
LINE
8
0
10
12.087782
20
1176.664781
11
12.705556
21
1175.170286
0
LINE
8
0
10
12.705556
20
1175.170286
11
12.918000
21
1173.540000
0
LINE
8
0
10
12.918000
20
1173.540000
11
12.918000
21
1173.540000
0
LINE
8
0
10
459.591000
20
1500.469000
11
459.381672
21
1498.891166
0
LINE
8
0
10
459.381672
20
1498.891166
11
458.780822
21
1497.445375
0
LINE
8
0
10
458.780822
20
1497.445375
11
457.829155
21
1496.202129
0
LINE
8
0
10
457.829155
20
1496.202129
11
456.567375
21
1495.231928
0
LINE
8
0
10
456.567375
20
1495.231928
11
455.096266
21
1494.624294
0
LINE
8
0
10
455.096266
20
1494.624294
11
453.543750
21
1494.421750
0
LINE
8
0
10
453.543750
20
1494.421750
11
451.991234
21
1494.624294
0
LINE
8
0
10
451.991234
20
1494.624294
11
450.520125
21
1495.231928
0
LINE
8
0
10
450.520125
20
1495.231928
11
449.258345
21
1496.202129
0
LINE
8
0
10
449.258345
20
1496.202129
11
448.306678
21
1497.445375
0
LINE
8
0
10
448.306678
20
1497.445375
11
447.705828
21
1498.891166
0
LINE
8
0
10
447.705828
20
1498.891166
11
447.496500
21
1500.469000
0
LINE
8
0
10
447.496500
20
1500.469000
11
447.705828
21
1502.046834
0
LINE
8
0
10
447.705828
20
1502.046834
11
448.306678
21
1503.492625
0
LINE
8
0
10
448.306678
20
1503.492625
11
449.258345
21
1504.735871
0
LINE
8
0
10
449.258345
20
1504.735871
11
450.520125
21
1505.706072
0
LINE
8
0
10
450.520125
20
1505.706072
11
451.991234
21
1506.313706
0
LINE
8
0
10
451.991234
20
1506.313706
11
453.543750
21
1506.516250
0
LINE
8
0
10
453.543750
20
1506.516250
11
455.096266
21
1506.313706
0
LINE
8
0
10
455.096266
20
1506.313706
11
456.567375
21
1505.706072
0
LINE
8
0
10
456.567375
20
1505.706072
11
457.829155
21
1504.735871
0
LINE
8
0
10
457.829155
20
1504.735871
11
458.780822
21
1503.492625
0
LINE
8
0
10
458.780822
20
1503.492625
11
459.381672
21
1502.046834
0
LINE
8
0
10
459.381672
20
1502.046834
11
459.591000
21
1500.469000
0
LINE
8
0
10
459.591000
20
1500.469000
11
459.591000
21
1500.469000
0
LINE
8
0
10
270.615000
20
1424.878500
11
270.405672
21
1423.300666
0
LINE
8
0
10
270.405672
20
1423.300666
11
269.804822
21
1421.854875
0
LINE
8
0
10
269.804822
20
1421.854875
11
268.853155
21
1420.611629
0
LINE
8
0
10
268.853155
20
1420.611629
11
267.591375
21
1419.641428
0
LINE
8
0
10
267.591375
20
1419.641428
11
266.120266
21
1419.033794
0
LINE
8
0
10
266.120266
20
1419.033794
11
264.567750
21
1418.831250
0
LINE
8
0
10
264.567750
20
1418.831250
11
263.015234
21
1419.033794
0
LINE
8
0
10
263.015234
20
1419.033794
11
261.544125
21
1419.641428
0
LINE
8
0
10
261.544125
20
1419.641428
11
260.282345
21
1420.611629
0
LINE
8
0
10
260.282345
20
1420.611629
11
259.330678
21
1421.854875
0
LINE
8
0
10
259.330678
20
1421.854875
11
258.729828
21
1423.300666
0
LINE
8
0
10
258.729828
20
1423.300666
11
258.520500
21
1424.878500
0
LINE
8
0
10
258.520500
20
1424.878500
11
258.729828
21
1426.456334
0
LINE
8
0
10
258.729828
20
1426.456334
11
259.330678
21
1427.902125
0
LINE
8
0
10
259.330678
20
1427.902125
11
260.282345
21
1429.145371
0
LINE
8
0
10
260.282345
20
1429.145371
11
261.544125
21
1430.115572
0
LINE
8
0
10
261.544125
20
1430.115572
11
263.015234
21
1430.723206
0
LINE
8
0
10
263.015234
20
1430.723206
11
264.567750
21
1430.925750
0
LINE
8
0
10
264.567750
20
1430.925750
11
266.120266
21
1430.723206
0
LINE
8
0
10
266.120266
20
1430.723206
11
267.591375
21
1430.115572
0
LINE
8
0
10
267.591375
20
1430.115572
11
268.853155
21
1429.145371
0
LINE
8
0
10
268.853155
20
1429.145371
11
269.804822
21
1427.902125
0
LINE
8
0
10
269.804822
20
1427.902125
11
270.405672
21
1426.456334
0
LINE
8
0
10
270.405672
20
1426.456334
11
270.615000
21
1424.878500
0
LINE
8
0
10
270.615000
20
1424.878500
11
270.615000
21
1424.878500
0
LINE
8
0
10
585.382000
20
1173.539500
11
585.169556
21
1171.909214
0
LINE
8
0
10
585.169556
20
1171.909214
11
584.551782
21
1170.414719
0
LINE
8
0
10
584.551782
20
1170.414719
11
583.570734
21
1169.129144
0
LINE
8
0
10
583.570734
20
1169.129144
11
582.268468
21
1168.125615
0
LINE
8
0
10
582.268468
20
1168.125615
11
580.749313
21
1167.497018
0
LINE
8
0
10
580.749313
20
1167.497018
11
579.145800
21
1167.287486
0
LINE
8
0
10
579.145800
20
1167.287486
11
577.542287
21
1167.497018
0
LINE
8
0
10
577.542287
20
1167.497018
11
576.023132
21
1168.125615
0
LINE
8
0
10
576.023132
20
1168.125615
11
574.720866
21
1169.129144
0
LINE
8
0
10
574.720866
20
1169.129144
11
573.739818
21
1170.414719
0
LINE
8
0
10
573.739818
20
1170.414719
11
573.122044
21
1171.909214
0
LINE
8
0
10
573.122044
20
1171.909214
11
572.909600
21
1173.539500
0
LINE
8
0
10
572.909600
20
1173.539500
11
573.122044
21
1175.169786
0
LINE
8
0
10
573.122044
20
1175.169786
11
573.739818
21
1176.664281
0
LINE
8
0
10
573.739818
20
1176.664281
11
574.720866
21
1177.949856
0
LINE
8
0
10
574.720866
20
1177.949856
11
576.023132
21
1178.953385
0
LINE
8
0
10
576.023132
20
1178.953385
11
577.542287
21
1179.581982
0
LINE
8
0
10
577.542287
20
1179.581982
11
579.145800
21
1179.791514
0
LINE
8
0
10
579.145800
20
1179.791514
11
580.749313
21
1179.581982
0
LINE
8
0
10
580.749313
20
1179.581982
11
582.268468
21
1178.953385
0
LINE
8
0
10
582.268468
20
1178.953385
11
583.570734
21
1177.949856
0
LINE
8
0
10
583.570734
20
1177.949856
11
584.551782
21
1176.664281
0
LINE
8
0
10
584.551782
20
1176.664281
11
585.169556
21
1175.169786
0
LINE
8
0
10
585.169556
20
1175.169786
11
585.382000
21
1173.539500
0
LINE
8
0
10
585.382000
20
1173.539500
11
585.382000
21
1173.539500
0
LINE
8
0
10
585.382000
20
1071.492500
11
585.169556
21
1069.862214
0
LINE
8
0
10
585.169556
20
1069.862214
11
584.551782
21
1068.367719
0
LINE
8
0
10
584.551782
20
1068.367719
11
583.570734
21
1067.082144
0
LINE
8
0
10
583.570734
20
1067.082144
11
582.268468
21
1066.078615
0
LINE
8
0
10
582.268468
20
1066.078615
11
580.749313
21
1065.450018
0
LINE
8
0
10
580.749313
20
1065.450018
11
579.145800
21
1065.240486
0
LINE
8
0
10
579.145800
20
1065.240486
11
577.542287
21
1065.450018
0
LINE
8
0
10
577.542287
20
1065.450018
11
576.023132
21
1066.078615
0
LINE
8
0
10
576.023132
20
1066.078615
11
574.720866
21
1067.082144
0
LINE
8
0
10
574.720866
20
1067.082144
11
573.739818
21
1068.367719
0
LINE
8
0
10
573.739818
20
1068.367719
11
573.122044
21
1069.862214
0
LINE
8
0
10
573.122044
20
1069.862214
11
572.909600
21
1071.492500
0
LINE
8
0
10
572.909600
20
1071.492500
11
573.122044
21
1073.122786
0
LINE
8
0
10
573.122044
20
1073.122786
11
573.739818
21
1074.617281
0
LINE
8
0
10
573.739818
20
1074.617281
11
574.720866
21
1075.902856
0
LINE
8
0
10
574.720866
20
1075.902856
11
576.023132
21
1076.906385
0
LINE
8
0
10
576.023132
20
1076.906385
11
577.542287
21
1077.534982
0
LINE
8
0
10
577.542287
20
1077.534982
11
579.145800
21
1077.744514
0
LINE
8
0
10
579.145800
20
1077.744514
11
580.749313
21
1077.534982
0
LINE
8
0
10
580.749313
20
1077.534982
11
582.268468
21
1076.906385
0
LINE
8
0
10
582.268468
20
1076.906385
11
583.570734
21
1075.902856
0
LINE
8
0
10
583.570734
20
1075.902856
11
584.551782
21
1074.617281
0
LINE
8
0
10
584.551782
20
1074.617281
11
585.169556
21
1073.122786
0
LINE
8
0
10
585.169556
20
1073.122786
11
585.382000
21
1071.492500
0
LINE
8
0
10
585.382000
20
1071.492500
11
585.382000
21
1071.492500
0
LINE
8
0
10
107.407000
20
1071.492500
11
107.194556
21
1069.862214
0
LINE
8
0
10
107.194556
20
1069.862214
11
106.576782
21
1068.367719
0
LINE
8
0
10
106.576782
20
1068.367719
11
105.595734
21
1067.082144
0
LINE
8
0
10
105.595734
20
1067.082144
11
104.293468
21
1066.078615
0
LINE
8
0
10
104.293468
20
1066.078615
11
102.774313
21
1065.450018
0
LINE
8
0
10
102.774313
20
1065.450018
11
101.170800
21
1065.240486
0
LINE
8
0
10
101.170800
20
1065.240486
11
99.567287
21
1065.450018
0
LINE
8
0
10
99.567287
20
1065.450018
11
98.048132
21
1066.078615
0
LINE
8
0
10
98.048132
20
1066.078615
11
96.745866
21
1067.082144
0
LINE
8
0
10
96.745866
20
1067.082144
11
95.764818
21
1068.367719
0
LINE
8
0
10
95.764818
20
1068.367719
11
95.147044
21
1069.862214
0
LINE
8
0
10
95.147044
20
1069.862214
11
94.934600
21
1071.492500
0
LINE
8
0
10
94.934600
20
1071.492500
11
95.147044
21
1073.122786
0
LINE
8
0
10
95.147044
20
1073.122786
11
95.764818
21
1074.617281
0
LINE
8
0
10
95.764818
20
1074.617281
11
96.745866
21
1075.902856
0
LINE
8
0
10
96.745866
20
1075.902856
11
98.048132
21
1076.906385
0
LINE
8
0
10
98.048132
20
1076.906385
11
99.567287
21
1077.534982
0
LINE
8
0
10
99.567287
20
1077.534982
11
101.170800
21
1077.744514
0
LINE
8
0
10
101.170800
20
1077.744514
11
102.774313
21
1077.534982
0
LINE
8
0
10
102.774313
20
1077.534982
11
104.293468
21
1076.906385
0
LINE
8
0
10
104.293468
20
1076.906385
11
105.595734
21
1075.902856
0
LINE
8
0
10
105.595734
20
1075.902856
11
106.576782
21
1074.617281
0
LINE
8
0
10
106.576782
20
1074.617281
11
107.194556
21
1073.122786
0
LINE
8
0
10
107.194556
20
1073.122786
11
107.407000
21
1071.492500
0
LINE
8
0
10
107.407000
20
1071.492500
11
107.407000
21
1071.492500
0
LINE
8
0
10
12.918800
20
1071.492500
11
12.706356
21
1069.862214
0
LINE
8
0
10
12.706356
20
1069.862214
11
12.088582
21
1068.367719
0
LINE
8
0
10
12.088582
20
1068.367719
11
11.107534
21
1067.082144
0
LINE
8
0
10
11.107534
20
1067.082144
11
9.805268
21
1066.078615
0
LINE
8
0
10
9.805268
20
1066.078615
11
8.286113
21
1065.450018
0
LINE
8
0
10
8.286113
20
1065.450018
11
6.682600
21
1065.240486
0
LINE
8
0
10
6.682600
20
1065.240486
11
5.079087
21
1065.450018
0
LINE
8
0
10
5.079087
20
1065.450018
11
3.559932
21
1066.078615
0
LINE
8
0
10
3.559932
20
1066.078615
11
2.257666
21
1067.082144
0
LINE
8
0
10
2.257666
20
1067.082144
11
1.276618
21
1068.367719
0
LINE
8
0
10
1.276618
20
1068.367719
11
0.658844
21
1069.862214
0
LINE
8
0
10
0.658844
20
1069.862214
11
0.446400
21
1071.492500
0
LINE
8
0
10
0.446400
20
1071.492500
11
0.658844
21
1073.122786
0
LINE
8
0
10
0.658844
20
1073.122786
11
1.276618
21
1074.617281
0
LINE
8
0
10
1.276618
20
1074.617281
11
2.257666
21
1075.902856
0
LINE
8
0
10
2.257666
20
1075.902856
11
3.559932
21
1076.906385
0
LINE
8
0
10
3.559932
20
1076.906385
11
5.079087
21
1077.534982
0
LINE
8
0
10
5.079087
20
1077.534982
11
6.682600
21
1077.744514
0
LINE
8
0
10
6.682600
20
1077.744514
11
8.286113
21
1077.534982
0
LINE
8
0
10
8.286113
20
1077.534982
11
9.805268
21
1076.906385
0
LINE
8
0
10
9.805268
20
1076.906385
11
11.107534
21
1075.902856
0
LINE
8
0
10
11.107534
20
1075.902856
11
12.088582
21
1074.617281
0
LINE
8
0
10
12.088582
20
1074.617281
11
12.706356
21
1073.122786
0
LINE
8
0
10
12.706356
20
1073.122786
11
12.918800
21
1071.492500
0
LINE
8
0
10
12.918800
20
1071.492500
11
12.918800
21
1071.492500
0
LINE
8
0
10
679.869800
20
1173.539500
11
679.657356
21
1171.909214
0
LINE
8
0
10
679.657356
20
1171.909214
11
679.039582
21
1170.414719
0
LINE
8
0
10
679.039582
20
1170.414719
11
678.058534
21
1169.129144
0
LINE
8
0
10
678.058534
20
1169.129144
11
676.756268
21
1168.125615
0
LINE
8
0
10
676.756268
20
1168.125615
11
675.237113
21
1167.497018
0
LINE
8
0
10
675.237113
20
1167.497018
11
673.633600
21
1167.287486
0
LINE
8
0
10
673.633600
20
1167.287486
11
672.030087
21
1167.497018
0
LINE
8
0
10
672.030087
20
1167.497018
11
670.510932
21
1168.125615
0
LINE
8
0
10
670.510932
20
1168.125615
11
669.208666
21
1169.129144
0
LINE
8
0
10
669.208666
20
1169.129144
11
668.227618
21
1170.414719
0
LINE
8
0
10
668.227618
20
1170.414719
11
667.609844
21
1171.909214
0
LINE
8
0
10
667.609844
20
1171.909214
11
667.397400
21
1173.539500
0
LINE
8
0
10
667.397400
20
1173.539500
11
667.609844
21
1175.169786
0
LINE
8
0
10
667.609844
20
1175.169786
11
668.227618
21
1176.664281
0
LINE
8
0
10
668.227618
20
1176.664281
11
669.208666
21
1177.949856
0
LINE
8
0
10
669.208666
20
1177.949856
11
670.510932
21
1178.953385
0
LINE
8
0
10
670.510932
20
1178.953385
11
672.030087
21
1179.581982
0
LINE
8
0
10
672.030087
20
1179.581982
11
673.633600
21
1179.791514
0
LINE
8
0
10
673.633600
20
1179.791514
11
675.237113
21
1179.581982
0
LINE
8
0
10
675.237113
20
1179.581982
11
676.756268
21
1178.953385
0
LINE
8
0
10
676.756268
20
1178.953385
11
678.058534
21
1177.949856
0
LINE
8
0
10
678.058534
20
1177.949856
11
679.039582
21
1176.664281
0
LINE
8
0
10
679.039582
20
1176.664281
11
679.657356
21
1175.169786
0
LINE
8
0
10
679.657356
20
1175.169786
11
679.869800
21
1173.539500
0
LINE
8
0
10
679.869800
20
1173.539500
11
679.869800
21
1173.539500
0
LINE
8
0
10
679.869800
20
1071.492500
11
679.657356
21
1069.862214
0
LINE
8
0
10
679.657356
20
1069.862214
11
679.039582
21
1068.367719
0
LINE
8
0
10
679.039582
20
1068.367719
11
678.058534
21
1067.082144
0
LINE
8
0
10
678.058534
20
1067.082144
11
676.756268
21
1066.078615
0
LINE
8
0
10
676.756268
20
1066.078615
11
675.237113
21
1065.450018
0
LINE
8
0
10
675.237113
20
1065.450018
11
673.633600
21
1065.240486
0
LINE
8
0
10
673.633600
20
1065.240486
11
672.030087
21
1065.450018
0
LINE
8
0
10
672.030087
20
1065.450018
11
670.510932
21
1066.078615
0
LINE
8
0
10
670.510932
20
1066.078615
11
669.208666
21
1067.082144
0
LINE
8
0
10
669.208666
20
1067.082144
11
668.227618
21
1068.367719
0
LINE
8
0
10
668.227618
20
1068.367719
11
667.609844
21
1069.862214
0
LINE
8
0
10
667.609844
20
1069.862214
11
667.397400
21
1071.492500
0
LINE
8
0
10
667.397400
20
1071.492500
11
667.609844
21
1073.122786
0
LINE
8
0
10
667.609844
20
1073.122786
11
668.227618
21
1074.617281
0
LINE
8
0
10
668.227618
20
1074.617281
11
669.208666
21
1075.902856
0
LINE
8
0
10
669.208666
20
1075.902856
11
670.510932
21
1076.906385
0
LINE
8
0
10
670.510932
20
1076.906385
11
672.030087
21
1077.534982
0
LINE
8
0
10
672.030087
20
1077.534982
11
673.633600
21
1077.744514
0
LINE
8
0
10
673.633600
20
1077.744514
11
675.237113
21
1077.534982
0
LINE
8
0
10
675.237113
20
1077.534982
11
676.756268
21
1076.906385
0
LINE
8
0
10
676.756268
20
1076.906385
11
678.058534
21
1075.902856
0
LINE
8
0
10
678.058534
20
1075.902856
11
679.039582
21
1074.617281
0
LINE
8
0
10
679.039582
20
1074.617281
11
679.657356
21
1073.122786
0
LINE
8
0
10
679.657356
20
1073.122786
11
679.869800
21
1071.492500
0
LINE
8
0
10
679.869800
20
1071.492500
11
679.869800
21
1071.492500
0
LINE
8
0
10
459.590800
20
1198.106500
11
459.381472
21
1196.528666
0
LINE
8
0
10
459.381472
20
1196.528666
11
458.780622
21
1195.082875
0
LINE
8
0
10
458.780622
20
1195.082875
11
457.828955
21
1193.839629
0
LINE
8
0
10
457.828955
20
1193.839629
11
456.567175
21
1192.869428
0
LINE
8
0
10
456.567175
20
1192.869428
11
455.096066
21
1192.261794
0
LINE
8
0
10
455.096066
20
1192.261794
11
453.543550
21
1192.059250
0
LINE
8
0
10
453.543550
20
1192.059250
11
451.991034
21
1192.261794
0
LINE
8
0
10
451.991034
20
1192.261794
11
450.519925
21
1192.869428
0
LINE
8
0
10
450.519925
20
1192.869428
11
449.258145
21
1193.839629
0
LINE
8
0
10
449.258145
20
1193.839629
11
448.306478
21
1195.082875
0
LINE
8
0
10
448.306478
20
1195.082875
11
447.705628
21
1196.528666
0
LINE
8
0
10
447.705628
20
1196.528666
11
447.496300
21
1198.106500
0
LINE
8
0
10
447.496300
20
1198.106500
11
447.705628
21
1199.684334
0
LINE
8
0
10
447.705628
20
1199.684334
11
448.306478
21
1201.130125
0
LINE
8
0
10
448.306478
20
1201.130125
11
449.258145
21
1202.373371
0
LINE
8
0
10
449.258145
20
1202.373371
11
450.519925
21
1203.343572
0
LINE
8
0
10
450.519925
20
1203.343572
11
451.991034
21
1203.951206
0
LINE
8
0
10
451.991034
20
1203.951206
11
453.543550
21
1204.153750
0
LINE
8
0
10
453.543550
20
1204.153750
11
455.096066
21
1203.951206
0
LINE
8
0
10
455.096066
20
1203.951206
11
456.567175
21
1203.343572
0
LINE
8
0
10
456.567175
20
1203.343572
11
457.828955
21
1202.373371
0
LINE
8
0
10
457.828955
20
1202.373371
11
458.780622
21
1201.130125
0
LINE
8
0
10
458.780622
20
1201.130125
11
459.381472
21
1199.684334
0
LINE
8
0
10
459.381472
20
1199.684334
11
459.590800
21
1198.106500
0
LINE
8
0
10
459.590800
20
1198.106500
11
459.590800
21
1198.106500
0
LINE
8
0
10
421.795500
20
1576.059500
11
421.586172
21
1574.481666
0
LINE
8
0
10
421.586172
20
1574.481666
11
420.985322
21
1573.035875
0
LINE
8
0
10
420.985322
20
1573.035875
11
420.033655
21
1571.792629
0
LINE
8
0
10
420.033655
20
1571.792629
11
418.771875
21
1570.822428
0
LINE
8
0
10
418.771875
20
1570.822428
11
417.300766
21
1570.214794
0
LINE
8
0
10
417.300766
20
1570.214794
11
415.748250
21
1570.012250
0
LINE
8
0
10
415.748250
20
1570.012250
11
414.195734
21
1570.214794
0
LINE
8
0
10
414.195734
20
1570.214794
11
412.724625
21
1570.822428
0
LINE
8
0
10
412.724625
20
1570.822428
11
411.462845
21
1571.792629
0
LINE
8
0
10
411.462845
20
1571.792629
11
410.511178
21
1573.035875
0
LINE
8
0
10
410.511178
20
1573.035875
11
409.910328
21
1574.481666
0
LINE
8
0
10
409.910328
20
1574.481666
11
409.701000
21
1576.059500
0
LINE
8
0
10
409.701000
20
1576.059500
11
409.910328
21
1577.637334
0
LINE
8
0
10
409.910328
20
1577.637334
11
410.511178
21
1579.083125
0
LINE
8
0
10
410.511178
20
1579.083125
11
411.462845
21
1580.326371
0
LINE
8
0
10
411.462845
20
1580.326371
11
412.724625
21
1581.296572
0
LINE
8
0
10
412.724625
20
1581.296572
11
414.195734
21
1581.904206
0
LINE
8
0
10
414.195734
20
1581.904206
11
415.748250
21
1582.106750
0
LINE
8
0
10
415.748250
20
1582.106750
11
417.300766
21
1581.904206
0
LINE
8
0
10
417.300766
20
1581.904206
11
418.771875
21
1581.296572
0
LINE
8
0
10
418.771875
20
1581.296572
11
420.033655
21
1580.326371
0
LINE
8
0
10
420.033655
20
1580.326371
11
420.985322
21
1579.083125
0
LINE
8
0
10
420.985322
20
1579.083125
11
421.586172
21
1577.637334
0
LINE
8
0
10
421.586172
20
1577.637334
11
421.795500
21
1576.059500
0
LINE
8
0
10
421.795500
20
1576.059500
11
421.795500
21
1576.059500
0
LINE
8
0
10
270.614000
20
1273.700000
11
270.404672
21
1272.122166
0
LINE
8
0
10
270.404672
20
1272.122166
11
269.803822
21
1270.676375
0
LINE
8
0
10
269.803822
20
1270.676375
11
268.852156
21
1269.433128
0
LINE
8
0
10
268.852156
20
1269.433128
11
267.590375
21
1268.462927
0
LINE
8
0
10
267.590375
20
1268.462927
11
266.119266
21
1267.855294
0
LINE
8
0
10
266.119266
20
1267.855294
11
264.566750
21
1267.652749
0
LINE
8
0
10
264.566750
20
1267.652749
11
263.014234
21
1267.855294
0
LINE
8
0
10
263.014234
20
1267.855294
11
261.543125
21
1268.462927
0
LINE
8
0
10
261.543125
20
1268.462927
11
260.281344
21
1269.433128
0
LINE
8
0
10
260.281344
20
1269.433128
11
259.329678
21
1270.676375
0
LINE
8
0
10
259.329678
20
1270.676375
11
258.728828
21
1272.122166
0
LINE
8
0
10
258.728828
20
1272.122166
11
258.519500
21
1273.700000
0
LINE
8
0
10
258.519500
20
1273.700000
11
258.728828
21
1275.277834
0
LINE
8
0
10
258.728828
20
1275.277834
11
259.329678
21
1276.723625
0
LINE
8
0
10
259.329678
20
1276.723625
11
260.281344
21
1277.966872
0
LINE
8
0
10
260.281344
20
1277.966872
11
261.543125
21
1278.937073
0
LINE
8
0
10
261.543125
20
1278.937073
11
263.014234
21
1279.544706
0
LINE
8
0
10
263.014234
20
1279.544706
11
264.566750
21
1279.747251
0
LINE
8
0
10
264.566750
20
1279.747251
11
266.119266
21
1279.544706
0
LINE
8
0
10
266.119266
20
1279.544706
11
267.590375
21
1278.937073
0
LINE
8
0
10
267.590375
20
1278.937073
11
268.852156
21
1277.966872
0
LINE
8
0
10
268.852156
20
1277.966872
11
269.803822
21
1276.723625
0
LINE
8
0
10
269.803822
20
1276.723625
11
270.404672
21
1275.277834
0
LINE
8
0
10
270.404672
20
1275.277834
11
270.614000
21
1273.700000
0
LINE
8
0
10
270.614000
20
1273.700000
11
270.614000
21
1273.700000
0
LINE
8
0
10
346.204500
20
1306.151800
11
345.995166
21
1304.573968
0
LINE
8
0
10
345.995166
20
1304.573968
11
345.394315
21
1303.128180
0
LINE
8
0
10
345.394315
20
1303.128180
11
344.442648
21
1301.884936
0
LINE
8
0
10
344.442648
20
1301.884936
11
343.180870
21
1300.914737
0
LINE
8
0
10
343.180870
20
1300.914737
11
341.709764
21
1300.307104
0
LINE
8
0
10
341.709764
20
1300.307104
11
340.157250
21
1300.104560
0
LINE
8
0
10
340.157250
20
1300.104560
11
338.604736
21
1300.307104
0
LINE
8
0
10
338.604736
20
1300.307104
11
337.133630
21
1300.914737
0
LINE
8
0
10
337.133630
20
1300.914737
11
335.871852
21
1301.884936
0
LINE
8
0
10
335.871852
20
1301.884936
11
334.920187
21
1303.128180
0
LINE
8
0
10
334.920187
20
1303.128180
11
334.319338
21
1304.573968
0
LINE
8
0
10
334.319338
20
1304.573968
11
334.110010
21
1306.151800
0
LINE
8
0
10
334.110010
20
1306.151800
11
334.319341
21
1307.729632
0
LINE
8
0
10
334.319341
20
1307.729632
11
334.920191
21
1309.175420
0
LINE
8
0
10
334.920191
20
1309.175420
11
335.871857
21
1310.418664
0
LINE
8
0
10
335.871857
20
1310.418664
11
337.133635
21
1311.388863
0
LINE
8
0
10
337.133635
20
1311.388863
11
338.604741
21
1311.996496
0
LINE
8
0
10
338.604741
20
1311.996496
11
340.157255
21
1312.199040
0
LINE
8
0
10
340.157255
20
1312.199040
11
341.709769
21
1311.996496
0
LINE
8
0
10
341.709769
20
1311.996496
11
343.180875
21
1311.388863
0
LINE
8
0
10
343.180875
20
1311.388863
11
344.442653
21
1310.418664
0
LINE
8
0
10
344.442653
20
1310.418664
11
345.394318
21
1309.175420
0
LINE
8
0
10
345.394318
20
1309.175420
11
345.995167
21
1307.729632
0
LINE
8
0
10
345.995167
20
1307.729632
11
346.204495
21
1306.151800
0
LINE
8
0
10
346.204495
20
1306.151800
11
346.204500
21
1306.151800
0
LINE
8
0
10
321.637600
20
1217.887200
11
321.428266
21
1216.309368
0
LINE
8
0
10
321.428266
20
1216.309368
11
320.827415
21
1214.863580
0
LINE
8
0
10
320.827415
20
1214.863580
11
319.875748
21
1213.620336
0
LINE
8
0
10
319.875748
20
1213.620336
11
318.613970
21
1212.650137
0
LINE
8
0
10
318.613970
20
1212.650137
11
317.142864
21
1212.042504
0
LINE
8
0
10
317.142864
20
1212.042504
11
315.590350
21
1211.839960
0
LINE
8
0
10
315.590350
20
1211.839960
11
314.037836
21
1212.042504
0
LINE
8
0
10
314.037836
20
1212.042504
11
312.566730
21
1212.650137
0
LINE
8
0
10
312.566730
20
1212.650137
11
311.304952
21
1213.620336
0
LINE
8
0
10
311.304952
20
1213.620336
11
310.353287
21
1214.863580
0
LINE
8
0
10
310.353287
20
1214.863580
11
309.752438
21
1216.309368
0
LINE
8
0
10
309.752438
20
1216.309368
11
309.543110
21
1217.887200
0
LINE
8
0
10
309.543110
20
1217.887200
11
309.752441
21
1219.465032
0
LINE
8
0
10
309.752441
20
1219.465032
11
310.353291
21
1220.910820
0
LINE
8
0
10
310.353291
20
1220.910820
11
311.304957
21
1222.154064
0
LINE
8
0
10
311.304957
20
1222.154064
11
312.566735
21
1223.124263
0
LINE
8
0
10
312.566735
20
1223.124263
11
314.037841
21
1223.731896
0
LINE
8
0
10
314.037841
20
1223.731896
11
315.590355
21
1223.934440
0
LINE
8
0
10
315.590355
20
1223.934440
11
317.142869
21
1223.731896
0
LINE
8
0
10
317.142869
20
1223.731896
11
318.613975
21
1223.124263
0
LINE
8
0
10
318.613975
20
1223.124263
11
319.875753
21
1222.154064
0
LINE
8
0
10
319.875753
20
1222.154064
11
320.827418
21
1220.910820
0
LINE
8
0
10
320.827418
20
1220.910820
11
321.428267
21
1219.465032
0
LINE
8
0
10
321.428267
20
1219.465032
11
321.637595
21
1217.887200
0
LINE
8
0
10
321.637595
20
1217.887200
11
321.637600
21
1217.887200
0
LINE
8
0
10
321.637600
20
1149.855700
11
321.428266
21
1148.277868
0
LINE
8
0
10
321.428266
20
1148.277868
11
320.827415
21
1146.832080
0
LINE
8
0
10
320.827415
20
1146.832080
11
319.875748
21
1145.588836
0
LINE
8
0
10
319.875748
20
1145.588836
11
318.613970
21
1144.618637
0
LINE
8
0
10
318.613970
20
1144.618637
11
317.142864
21
1144.011004
0
LINE
8
0
10
317.142864
20
1144.011004
11
315.590350
21
1143.808460
0
LINE
8
0
10
315.590350
20
1143.808460
11
314.037836
21
1144.011004
0
LINE
8
0
10
314.037836
20
1144.011004
11
312.566730
21
1144.618637
0
LINE
8
0
10
312.566730
20
1144.618637
11
311.304952
21
1145.588836
0
LINE
8
0
10
311.304952
20
1145.588836
11
310.353287
21
1146.832080
0
LINE
8
0
10
310.353287
20
1146.832080
11
309.752438
21
1148.277868
0
LINE
8
0
10
309.752438
20
1148.277868
11
309.543110
21
1149.855700
0
LINE
8
0
10
309.543110
20
1149.855700
11
309.752441
21
1151.433532
0
LINE
8
0
10
309.752441
20
1151.433532
11
310.353291
21
1152.879320
0
LINE
8
0
10
310.353291
20
1152.879320
11
311.304957
21
1154.122564
0
LINE
8
0
10
311.304957
20
1154.122564
11
312.566735
21
1155.092763
0
LINE
8
0
10
312.566735
20
1155.092763
11
314.037841
21
1155.700396
0
LINE
8
0
10
314.037841
20
1155.700396
11
315.590355
21
1155.902940
0
LINE
8
0
10
315.590355
20
1155.902940
11
317.142869
21
1155.700396
0
LINE
8
0
10
317.142869
20
1155.700396
11
318.613975
21
1155.092763
0
LINE
8
0
10
318.613975
20
1155.092763
11
319.875753
21
1154.122564
0
LINE
8
0
10
319.875753
20
1154.122564
11
320.827418
21
1152.879320
0
LINE
8
0
10
320.827418
20
1152.879320
11
321.428267
21
1151.433532
0
LINE
8
0
10
321.428267
20
1151.433532
11
321.637595
21
1149.855700
0
LINE
8
0
10
321.637595
20
1149.855700
11
321.637600
21
1149.855700
0
LINE
8
0
10
370.771500
20
1217.887200
11
370.562172
21
1216.309366
0
LINE
8
0
10
370.562172
20
1216.309366
11
369.961322
21
1214.863575
0
LINE
8
0
10
369.961322
20
1214.863575
11
369.009655
21
1213.620329
0
LINE
8
0
10
369.009655
20
1213.620329
11
367.747875
21
1212.650128
0
LINE
8
0
10
367.747875
20
1212.650128
11
366.276766
21
1212.042494
0
LINE
8
0
10
366.276766
20
1212.042494
11
364.724250
21
1211.839950
0
LINE
8
0
10
364.724250
20
1211.839950
11
363.171734
21
1212.042494
0
LINE
8
0
10
363.171734
20
1212.042494
11
361.700625
21
1212.650128
0
LINE
8
0
10
361.700625
20
1212.650128
11
360.438845
21
1213.620329
0
LINE
8
0
10
360.438845
20
1213.620329
11
359.487178
21
1214.863575
0
LINE
8
0
10
359.487178
20
1214.863575
11
358.886328
21
1216.309366
0
LINE
8
0
10
358.886328
20
1216.309366
11
358.677000
21
1217.887200
0
LINE
8
0
10
358.677000
20
1217.887200
11
358.886328
21
1219.465034
0
LINE
8
0
10
358.886328
20
1219.465034
11
359.487178
21
1220.910825
0
LINE
8
0
10
359.487178
20
1220.910825
11
360.438845
21
1222.154071
0
LINE
8
0
10
360.438845
20
1222.154071
11
361.700625
21
1223.124272
0
LINE
8
0
10
361.700625
20
1223.124272
11
363.171734
21
1223.731906
0
LINE
8
0
10
363.171734
20
1223.731906
11
364.724250
21
1223.934450
0
LINE
8
0
10
364.724250
20
1223.934450
11
366.276766
21
1223.731906
0
LINE
8
0
10
366.276766
20
1223.731906
11
367.747875
21
1223.124272
0
LINE
8
0
10
367.747875
20
1223.124272
11
369.009655
21
1222.154071
0
LINE
8
0
10
369.009655
20
1222.154071
11
369.961322
21
1220.910825
0
LINE
8
0
10
369.961322
20
1220.910825
11
370.562172
21
1219.465034
0
LINE
8
0
10
370.562172
20
1219.465034
11
370.771500
21
1217.887200
0
LINE
8
0
10
370.771500
20
1217.887200
11
370.771500
21
1217.887200
0
LINE
8
0
10
370.771500
20
1149.855700
11
370.562172
21
1148.277866
0
LINE
8
0
10
370.562172
20
1148.277866
11
369.961322
21
1146.832075
0
LINE
8
0
10
369.961322
20
1146.832075
11
369.009655
21
1145.588829
0
LINE
8
0
10
369.009655
20
1145.588829
11
367.747875
21
1144.618628
0
LINE
8
0
10
367.747875
20
1144.618628
11
366.276766
21
1144.010994
0
LINE
8
0
10
366.276766
20
1144.010994
11
364.724250
21
1143.808450
0
LINE
8
0
10
364.724250
20
1143.808450
11
363.171734
21
1144.010994
0
LINE
8
0
10
363.171734
20
1144.010994
11
361.700625
21
1144.618628
0
LINE
8
0
10
361.700625
20
1144.618628
11
360.438845
21
1145.588829
0
LINE
8
0
10
360.438845
20
1145.588829
11
359.487178
21
1146.832075
0
LINE
8
0
10
359.487178
20
1146.832075
11
358.886328
21
1148.277866
0
LINE
8
0
10
358.886328
20
1148.277866
11
358.677000
21
1149.855700
0
LINE
8
0
10
358.677000
20
1149.855700
11
358.886328
21
1151.433534
0
LINE
8
0
10
358.886328
20
1151.433534
11
359.487178
21
1152.879325
0
LINE
8
0
10
359.487178
20
1152.879325
11
360.438845
21
1154.122571
0
LINE
8
0
10
360.438845
20
1154.122571
11
361.700625
21
1155.092772
0
LINE
8
0
10
361.700625
20
1155.092772
11
363.171734
21
1155.700406
0
LINE
8
0
10
363.171734
20
1155.700406
11
364.724250
21
1155.902950
0
LINE
8
0
10
364.724250
20
1155.902950
11
366.276766
21
1155.700406
0
LINE
8
0
10
366.276766
20
1155.700406
11
367.747875
21
1155.092772
0
LINE
8
0
10
367.747875
20
1155.092772
11
369.009655
21
1154.122571
0
LINE
8
0
10
369.009655
20
1154.122571
11
369.961322
21
1152.879325
0
LINE
8
0
10
369.961322
20
1152.879325
11
370.562172
21
1151.433534
0
LINE
8
0
10
370.562172
20
1151.433534
11
370.771500
21
1149.855700
0
LINE
8
0
10
370.771500
20
1149.855700
11
370.771500
21
1149.855700
0
LINE
8
0
10
157.228500
20
1273.699700
11
157.019172
21
1272.121866
0
LINE
8
0
10
157.019172
20
1272.121866
11
156.418322
21
1270.676075
0
LINE
8
0
10
156.418322
20
1270.676075
11
155.466655
21
1269.432829
0
LINE
8
0
10
155.466655
20
1269.432829
11
154.204875
21
1268.462628
0
LINE
8
0
10
154.204875
20
1268.462628
11
152.733766
21
1267.854994
0
LINE
8
0
10
152.733766
20
1267.854994
11
151.181250
21
1267.652450
0
LINE
8
0
10
151.181250
20
1267.652450
11
149.628734
21
1267.854994
0
LINE
8
0
10
149.628734
20
1267.854994
11
148.157625
21
1268.462628
0
LINE
8
0
10
148.157625
20
1268.462628
11
146.895845
21
1269.432829
0
LINE
8
0
10
146.895845
20
1269.432829
11
145.944178
21
1270.676075
0
LINE
8
0
10
145.944178
20
1270.676075
11
145.343328
21
1272.121866
0
LINE
8
0
10
145.343328
20
1272.121866
11
145.134000
21
1273.699700
0
LINE
8
0
10
145.134000
20
1273.699700
11
145.343328
21
1275.277534
0
LINE
8
0
10
145.343328
20
1275.277534
11
145.944178
21
1276.723325
0
LINE
8
0
10
145.944178
20
1276.723325
11
146.895845
21
1277.966571
0
LINE
8
0
10
146.895845
20
1277.966571
11
148.157625
21
1278.936772
0
LINE
8
0
10
148.157625
20
1278.936772
11
149.628734
21
1279.544406
0
LINE
8
0
10
149.628734
20
1279.544406
11
151.181250
21
1279.746950
0
LINE
8
0
10
151.181250
20
1279.746950
11
152.733766
21
1279.544406
0
LINE
8
0
10
152.733766
20
1279.544406
11
154.204875
21
1278.936772
0
LINE
8
0
10
154.204875
20
1278.936772
11
155.466655
21
1277.966571
0
LINE
8
0
10
155.466655
20
1277.966571
11
156.418322
21
1276.723325
0
LINE
8
0
10
156.418322
20
1276.723325
11
157.019172
21
1275.277534
0
LINE
8
0
10
157.019172
20
1275.277534
11
157.228500
21
1273.699700
0
LINE
8
0
10
157.228500
20
1273.699700
11
157.228500
21
1273.699700
0
LINE
8
0
10
535.181500
20
1273.699700
11
534.972172
21
1272.121866
0
LINE
8
0
10
534.972172
20
1272.121866
11
534.371322
21
1270.676075
0
LINE
8
0
10
534.371322
20
1270.676075
11
533.419655
21
1269.432829
0
LINE
8
0
10
533.419655
20
1269.432829
11
532.157875
21
1268.462628
0
LINE
8
0
10
532.157875
20
1268.462628
11
530.686766
21
1267.854994
0
LINE
8
0
10
530.686766
20
1267.854994
11
529.134250
21
1267.652450
0
LINE
8
0
10
529.134250
20
1267.652450
11
527.581734
21
1267.854994
0
LINE
8
0
10
527.581734
20
1267.854994
11
526.110625
21
1268.462628
0
LINE
8
0
10
526.110625
20
1268.462628
11
524.848845
21
1269.432829
0
LINE
8
0
10
524.848845
20
1269.432829
11
523.897178
21
1270.676075
0
LINE
8
0
10
523.897178
20
1270.676075
11
523.296328
21
1272.121866
0
LINE
8
0
10
523.296328
20
1272.121866
11
523.087000
21
1273.699700
0
LINE
8
0
10
523.087000
20
1273.699700
11
523.296328
21
1275.277534
0
LINE
8
0
10
523.296328
20
1275.277534
11
523.897178
21
1276.723325
0
LINE
8
0
10
523.897178
20
1276.723325
11
524.848845
21
1277.966571
0
LINE
8
0
10
524.848845
20
1277.966571
11
526.110625
21
1278.936772
0
LINE
8
0
10
526.110625
20
1278.936772
11
527.581734
21
1279.544406
0
LINE
8
0
10
527.581734
20
1279.544406
11
529.134250
21
1279.746950
0
LINE
8
0
10
529.134250
20
1279.746950
11
530.686766
21
1279.544406
0
LINE
8
0
10
530.686766
20
1279.544406
11
532.157875
21
1278.936772
0
LINE
8
0
10
532.157875
20
1278.936772
11
533.419655
21
1277.966571
0
LINE
8
0
10
533.419655
20
1277.966571
11
534.371322
21
1276.723325
0
LINE
8
0
10
534.371322
20
1276.723325
11
534.972172
21
1275.277534
0
LINE
8
0
10
534.972172
20
1275.277534
11
535.181500
21
1273.699700
0
LINE
8
0
10
535.181500
20
1273.699700
11
535.181500
21
1273.699700
0
LINE
8
0
10
421.795500
20
1273.699700
11
421.586172
21
1272.121866
0
LINE
8
0
10
421.586172
20
1272.121866
11
420.985322
21
1270.676075
0
LINE
8
0
10
420.985322
20
1270.676075
11
420.033655
21
1269.432829
0
LINE
8
0
10
420.033655
20
1269.432829
11
418.771875
21
1268.462628
0
LINE
8
0
10
418.771875
20
1268.462628
11
417.300766
21
1267.854994
0
LINE
8
0
10
417.300766
20
1267.854994
11
415.748250
21
1267.652450
0
LINE
8
0
10
415.748250
20
1267.652450
11
414.195734
21
1267.854994
0
LINE
8
0
10
414.195734
20
1267.854994
11
412.724625
21
1268.462628
0
LINE
8
0
10
412.724625
20
1268.462628
11
411.462845
21
1269.432829
0
LINE
8
0
10
411.462845
20
1269.432829
11
410.511178
21
1270.676075
0
LINE
8
0
10
410.511178
20
1270.676075
11
409.910328
21
1272.121866
0
LINE
8
0
10
409.910328
20
1272.121866
11
409.701000
21
1273.699700
0
LINE
8
0
10
409.701000
20
1273.699700
11
409.910328
21
1275.277534
0
LINE
8
0
10
409.910328
20
1275.277534
11
410.511178
21
1276.723325
0
LINE
8
0
10
410.511178
20
1276.723325
11
411.462845
21
1277.966571
0
LINE
8
0
10
411.462845
20
1277.966571
11
412.724625
21
1278.936772
0
LINE
8
0
10
412.724625
20
1278.936772
11
414.195734
21
1279.544406
0
LINE
8
0
10
414.195734
20
1279.544406
11
415.748250
21
1279.746950
0
LINE
8
0
10
415.748250
20
1279.746950
11
417.300766
21
1279.544406
0
LINE
8
0
10
417.300766
20
1279.544406
11
418.771875
21
1278.936772
0
LINE
8
0
10
418.771875
20
1278.936772
11
420.033655
21
1277.966571
0
LINE
8
0
10
420.033655
20
1277.966571
11
420.985322
21
1276.723325
0
LINE
8
0
10
420.985322
20
1276.723325
11
421.586172
21
1275.277534
0
LINE
8
0
10
421.586172
20
1275.277534
11
421.795500
21
1273.699700
0
LINE
8
0
10
421.795500
20
1273.699700
11
421.795500
21
1273.699700
0
LINE
8
0
10
157.228500
20
1424.880700
11
157.019172
21
1423.302866
0
LINE
8
0
10
157.019172
20
1423.302866
11
156.418322
21
1421.857075
0
LINE
8
0
10
156.418322
20
1421.857075
11
155.466655
21
1420.613829
0
LINE
8
0
10
155.466655
20
1420.613829
11
154.204875
21
1419.643628
0
LINE
8
0
10
154.204875
20
1419.643628
11
152.733766
21
1419.035994
0
LINE
8
0
10
152.733766
20
1419.035994
11
151.181250
21
1418.833450
0
LINE
8
0
10
151.181250
20
1418.833450
11
149.628734
21
1419.035994
0
LINE
8
0
10
149.628734
20
1419.035994
11
148.157625
21
1419.643628
0
LINE
8
0
10
148.157625
20
1419.643628
11
146.895845
21
1420.613829
0
LINE
8
0
10
146.895845
20
1420.613829
11
145.944178
21
1421.857075
0
LINE
8
0
10
145.944178
20
1421.857075
11
145.343328
21
1423.302866
0
LINE
8
0
10
145.343328
20
1423.302866
11
145.134000
21
1424.880700
0
LINE
8
0
10
145.134000
20
1424.880700
11
145.343328
21
1426.458534
0
LINE
8
0
10
145.343328
20
1426.458534
11
145.944178
21
1427.904325
0
LINE
8
0
10
145.944178
20
1427.904325
11
146.895845
21
1429.147571
0
LINE
8
0
10
146.895845
20
1429.147571
11
148.157625
21
1430.117772
0
LINE
8
0
10
148.157625
20
1430.117772
11
149.628734
21
1430.725406
0
LINE
8
0
10
149.628734
20
1430.725406
11
151.181250
21
1430.927950
0
LINE
8
0
10
151.181250
20
1430.927950
11
152.733766
21
1430.725406
0
LINE
8
0
10
152.733766
20
1430.725406
11
154.204875
21
1430.117772
0
LINE
8
0
10
154.204875
20
1430.117772
11
155.466655
21
1429.147571
0
LINE
8
0
10
155.466655
20
1429.147571
11
156.418322
21
1427.904325
0
LINE
8
0
10
156.418322
20
1427.904325
11
157.019172
21
1426.458534
0
LINE
8
0
10
157.019172
20
1426.458534
11
157.228500
21
1424.880700
0
LINE
8
0
10
157.228500
20
1424.880700
11
157.228500
21
1424.880700
0
LINE
8
0
10
535.181500
20
1424.880700
11
534.972172
21
1423.302866
0
LINE
8
0
10
534.972172
20
1423.302866
11
534.371322
21
1421.857075
0
LINE
8
0
10
534.371322
20
1421.857075
11
533.419655
21
1420.613829
0
LINE
8
0
10
533.419655
20
1420.613829
11
532.157875
21
1419.643628
0
LINE
8
0
10
532.157875
20
1419.643628
11
530.686766
21
1419.035994
0
LINE
8
0
10
530.686766
20
1419.035994
11
529.134250
21
1418.833450
0
LINE
8
0
10
529.134250
20
1418.833450
11
527.581734
21
1419.035994
0
LINE
8
0
10
527.581734
20
1419.035994
11
526.110625
21
1419.643628
0
LINE
8
0
10
526.110625
20
1419.643628
11
524.848845
21
1420.613829
0
LINE
8
0
10
524.848845
20
1420.613829
11
523.897178
21
1421.857075
0
LINE
8
0
10
523.897178
20
1421.857075
11
523.296328
21
1423.302866
0
LINE
8
0
10
523.296328
20
1423.302866
11
523.087000
21
1424.880700
0
LINE
8
0
10
523.087000
20
1424.880700
11
523.296328
21
1426.458534
0
LINE
8
0
10
523.296328
20
1426.458534
11
523.897178
21
1427.904325
0
LINE
8
0
10
523.897178
20
1427.904325
11
524.848845
21
1429.147571
0
LINE
8
0
10
524.848845
20
1429.147571
11
526.110625
21
1430.117772
0
LINE
8
0
10
526.110625
20
1430.117772
11
527.581734
21
1430.725406
0
LINE
8
0
10
527.581734
20
1430.725406
11
529.134250
21
1430.927950
0
LINE
8
0
10
529.134250
20
1430.927950
11
530.686766
21
1430.725406
0
LINE
8
0
10
530.686766
20
1430.725406
11
532.157875
21
1430.117772
0
LINE
8
0
10
532.157875
20
1430.117772
11
533.419655
21
1429.147571
0
LINE
8
0
10
533.419655
20
1429.147571
11
534.371322
21
1427.904325
0
LINE
8
0
10
534.371322
20
1427.904325
11
534.972172
21
1426.458534
0
LINE
8
0
10
534.972172
20
1426.458534
11
535.181500
21
1424.880700
0
LINE
8
0
10
535.181500
20
1424.880700
11
535.181500
21
1424.880700
0
LINE
8
0
10
421.795500
20
1424.880700
11
421.586172
21
1423.302866
0
LINE
8
0
10
421.586172
20
1423.302866
11
420.985322
21
1421.857075
0
LINE
8
0
10
420.985322
20
1421.857075
11
420.033655
21
1420.613829
0
LINE
8
0
10
420.033655
20
1420.613829
11
418.771875
21
1419.643628
0
LINE
8
0
10
418.771875
20
1419.643628
11
417.300766
21
1419.035994
0
LINE
8
0
10
417.300766
20
1419.035994
11
415.748250
21
1418.833450
0
LINE
8
0
10
415.748250
20
1418.833450
11
414.195734
21
1419.035994
0
LINE
8
0
10
414.195734
20
1419.035994
11
412.724625
21
1419.643628
0
LINE
8
0
10
412.724625
20
1419.643628
11
411.462845
21
1420.613829
0
LINE
8
0
10
411.462845
20
1420.613829
11
410.511178
21
1421.857075
0
LINE
8
0
10
410.511178
20
1421.857075
11
409.910328
21
1423.302866
0
LINE
8
0
10
409.910328
20
1423.302866
11
409.701000
21
1424.880700
0
LINE
8
0
10
409.701000
20
1424.880700
11
409.910328
21
1426.458534
0
LINE
8
0
10
409.910328
20
1426.458534
11
410.511178
21
1427.904325
0
LINE
8
0
10
410.511178
20
1427.904325
11
411.462845
21
1429.147571
0
LINE
8
0
10
411.462845
20
1429.147571
11
412.724625
21
1430.117772
0
LINE
8
0
10
412.724625
20
1430.117772
11
414.195734
21
1430.725406
0
LINE
8
0
10
414.195734
20
1430.725406
11
415.748250
21
1430.927950
0
LINE
8
0
10
415.748250
20
1430.927950
11
417.300766
21
1430.725406
0
LINE
8
0
10
417.300766
20
1430.725406
11
418.771875
21
1430.117772
0
LINE
8
0
10
418.771875
20
1430.117772
11
420.033655
21
1429.147571
0
LINE
8
0
10
420.033655
20
1429.147571
11
420.985322
21
1427.904325
0
LINE
8
0
10
420.985322
20
1427.904325
11
421.586172
21
1426.458534
0
LINE
8
0
10
421.586172
20
1426.458534
11
421.795500
21
1424.880700
0
LINE
8
0
10
421.795500
20
1424.880700
11
421.795500
21
1424.880700
0
LINE
8
0
10
270.614000
20
1576.060000
11
270.404672
21
1574.482166
0
LINE
8
0
10
270.404672
20
1574.482166
11
269.803822
21
1573.036375
0
LINE
8
0
10
269.803822
20
1573.036375
11
268.852156
21
1571.793128
0
LINE
8
0
10
268.852156
20
1571.793128
11
267.590375
21
1570.822927
0
LINE
8
0
10
267.590375
20
1570.822927
11
266.119266
21
1570.215294
0
LINE
8
0
10
266.119266
20
1570.215294
11
264.566750
21
1570.012749
0
LINE
8
0
10
264.566750
20
1570.012749
11
263.014234
21
1570.215294
0
LINE
8
0
10
263.014234
20
1570.215294
11
261.543125
21
1570.822927
0
LINE
8
0
10
261.543125
20
1570.822927
11
260.281344
21
1571.793128
0
LINE
8
0
10
260.281344
20
1571.793128
11
259.329678
21
1573.036375
0
LINE
8
0
10
259.329678
20
1573.036375
11
258.728828
21
1574.482166
0
LINE
8
0
10
258.728828
20
1574.482166
11
258.519500
21
1576.060000
0
LINE
8
0
10
258.519500
20
1576.060000
11
258.728828
21
1577.637834
0
LINE
8
0
10
258.728828
20
1577.637834
11
259.329678
21
1579.083625
0
LINE
8
0
10
259.329678
20
1579.083625
11
260.281344
21
1580.326872
0
LINE
8
0
10
260.281344
20
1580.326872
11
261.543125
21
1581.297073
0
LINE
8
0
10
261.543125
20
1581.297073
11
263.014234
21
1581.904706
0
LINE
8
0
10
263.014234
20
1581.904706
11
264.566750
21
1582.107251
0
LINE
8
0
10
264.566750
20
1582.107251
11
266.119266
21
1581.904706
0
LINE
8
0
10
266.119266
20
1581.904706
11
267.590375
21
1581.297073
0
LINE
8
0
10
267.590375
20
1581.297073
11
268.852156
21
1580.326872
0
LINE
8
0
10
268.852156
20
1580.326872
11
269.803822
21
1579.083625
0
LINE
8
0
10
269.803822
20
1579.083625
11
270.404672
21
1577.637834
0
LINE
8
0
10
270.404672
20
1577.637834
11
270.614000
21
1576.060000
0
LINE
8
0
10
270.614000
20
1576.060000
11
270.614000
21
1576.060000
0
LINE
8
0
10
107.406000
20
1173.540000
11
107.193556
21
1171.909714
0
LINE
8
0
10
107.193556
20
1171.909714
11
106.575782
21
1170.415219
0
LINE
8
0
10
106.575782
20
1170.415219
11
105.594734
21
1169.129644
0
LINE
8
0
10
105.594734
20
1169.129644
11
104.292468
21
1168.126115
0
LINE
8
0
10
104.292468
20
1168.126115
11
102.773313
21
1167.497518
0
LINE
8
0
10
102.773313
20
1167.497518
11
101.169800
21
1167.287986
0
LINE
8
0
10
101.169800
20
1167.287986
11
99.566287
21
1167.497518
0
LINE
8
0
10
99.566287
20
1167.497518
11
98.047132
21
1168.126115
0
LINE
8
0
10
98.047132
20
1168.126115
11
96.744866
21
1169.129644
0
LINE
8
0
10
96.744866
20
1169.129644
11
95.763818
21
1170.415219
0
LINE
8
0
10
95.763818
20
1170.415219
11
95.146044
21
1171.909714
0
LINE
8
0
10
95.146044
20
1171.909714
11
94.933600
21
1173.540000
0
LINE
8
0
10
94.933600
20
1173.540000
11
95.146044
21
1175.170286
0
LINE
8
0
10
95.146044
20
1175.170286
11
95.763818
21
1176.664781
0
LINE
8
0
10
95.763818
20
1176.664781
11
96.744866
21
1177.950356
0
LINE
8
0
10
96.744866
20
1177.950356
11
98.047132
21
1178.953885
0
LINE
8
0
10
98.047132
20
1178.953885
11
99.566287
21
1179.582482
0
LINE
8
0
10
99.566287
20
1179.582482
11
101.169800
21
1179.792014
0
LINE
8
0
10
101.169800
20
1179.792014
11
102.773313
21
1179.582482
0
LINE
8
0
10
102.773313
20
1179.582482
11
104.292468
21
1178.953885
0
LINE
8
0
10
104.292468
20
1178.953885
11
105.594734
21
1177.950356
0
LINE
8
0
10
105.594734
20
1177.950356
11
106.575782
21
1176.664781
0
LINE
8
0
10
106.575782
20
1176.664781
11
107.193556
21
1175.170286
0
LINE
8
0
10
107.193556
20
1175.170286
11
107.406000
21
1173.540000
0
LINE
8
0
10
107.406000
20
1173.540000
11
107.406000
21
1173.540000
0
LINE
8
0
10
232.819000
20
1198.106900
11
232.609672
21
1196.529066
0
LINE
8
0
10
232.609672
20
1196.529066
11
232.008822
21
1195.083275
0
LINE
8
0
10
232.008822
20
1195.083275
11
231.057155
21
1193.840029
0
LINE
8
0
10
231.057155
20
1193.840029
11
229.795375
21
1192.869828
0
LINE
8
0
10
229.795375
20
1192.869828
11
228.324266
21
1192.262194
0
LINE
8
0
10
228.324266
20
1192.262194
11
226.771750
21
1192.059650
0
LINE
8
0
10
226.771750
20
1192.059650
11
225.219234
21
1192.262194
0
LINE
8
0
10
225.219234
20
1192.262194
11
223.748125
21
1192.869828
0
LINE
8
0
10
223.748125
20
1192.869828
11
222.486345
21
1193.840029
0
LINE
8
0
10
222.486345
20
1193.840029
11
221.534678
21
1195.083275
0
LINE
8
0
10
221.534678
20
1195.083275
11
220.933828
21
1196.529066
0
LINE
8
0
10
220.933828
20
1196.529066
11
220.724500
21
1198.106900
0
LINE
8
0
10
220.724500
20
1198.106900
11
220.933828
21
1199.684734
0
LINE
8
0
10
220.933828
20
1199.684734
11
221.534678
21
1201.130525
0
LINE
8
0
10
221.534678
20
1201.130525
11
222.486345
21
1202.373771
0
LINE
8
0
10
222.486345
20
1202.373771
11
223.748125
21
1203.343972
0
LINE
8
0
10
223.748125
20
1203.343972
11
225.219234
21
1203.951606
0
LINE
8
0
10
225.219234
20
1203.951606
11
226.771750
21
1204.154150
0
LINE
8
0
10
226.771750
20
1204.154150
11
228.324266
21
1203.951606
0
LINE
8
0
10
228.324266
20
1203.951606
11
229.795375
21
1203.343972
0
LINE
8
0
10
229.795375
20
1203.343972
11
231.057155
21
1202.373771
0
LINE
8
0
10
231.057155
20
1202.373771
11
232.008822
21
1201.130525
0
LINE
8
0
10
232.008822
20
1201.130525
11
232.609672
21
1199.684734
0
LINE
8
0
10
232.609672
20
1199.684734
11
232.819000
21
1198.106900
0
LINE
8
0
10
232.819000
20
1198.106900
11
232.819000
21
1198.106900
0
LINE
8
0
10
232.819000
20
1500.468900
11
232.609672
21
1498.891066
0
LINE
8
0
10
232.609672
20
1498.891066
11
232.008822
21
1497.445275
0
LINE
8
0
10
232.008822
20
1497.445275
11
231.057155
21
1496.202029
0
LINE
8
0
10
231.057155
20
1496.202029
11
229.795375
21
1495.231828
0
LINE
8
0
10
229.795375
20
1495.231828
11
228.324266
21
1494.624194
0
LINE
8
0
10
228.324266
20
1494.624194
11
226.771750
21
1494.421650
0
LINE
8
0
10
226.771750
20
1494.421650
11
225.219234
21
1494.624194
0
LINE
8
0
10
225.219234
20
1494.624194
11
223.748125
21
1495.231828
0
LINE
8
0
10
223.748125
20
1495.231828
11
222.486345
21
1496.202029
0
LINE
8
0
10
222.486345
20
1496.202029
11
221.534678
21
1497.445275
0
LINE
8
0
10
221.534678
20
1497.445275
11
220.933828
21
1498.891066
0
LINE
8
0
10
220.933828
20
1498.891066
11
220.724500
21
1500.468900
0
LINE
8
0
10
220.724500
20
1500.468900
11
220.933828
21
1502.046734
0
LINE
8
0
10
220.933828
20
1502.046734
11
221.534678
21
1503.492525
0
LINE
8
0
10
221.534678
20
1503.492525
11
222.486345
21
1504.735771
0
LINE
8
0
10
222.486345
20
1504.735771
11
223.748125
21
1505.705972
0
LINE
8
0
10
223.748125
20
1505.705972
11
225.219234
21
1506.313606
0
LINE
8
0
10
225.219234
20
1506.313606
11
226.771750
21
1506.516150
0
LINE
8
0
10
226.771750
20
1506.516150
11
228.324266
21
1506.313606
0
LINE
8
0
10
228.324266
20
1506.313606
11
229.795375
21
1505.705972
0
LINE
8
0
10
229.795375
20
1505.705972
11
231.057155
21
1504.735771
0
LINE
8
0
10
231.057155
20
1504.735771
11
232.008822
21
1503.492525
0
LINE
8
0
10
232.008822
20
1503.492525
11
232.609672
21
1502.046734
0
LINE
8
0
10
232.609672
20
1502.046734
11
232.819000
21
1500.468900
0
LINE
8
0
10
232.819000
20
1500.468900
11
232.819000
21
1500.468900
0
LINE
8
0
10
387.402000
20
1576.059500
11
387.297305
21
1572.911205
0
LINE
8
0
10
387.297305
20
1572.911205
11
386.986531
21
1569.801566
0
LINE
8
0
10
386.986531
20
1569.801566
11
386.474648
21
1566.739189
0
LINE
8
0
10
386.474648
20
1566.739189
11
385.766623
21
1563.732680
0
LINE
8
0
10
385.766623
20
1563.732680
11
384.867427
21
1560.790646
0
LINE
8
0
10
384.867427
20
1560.790646
11
383.782027
21
1557.921692
0
LINE
8
0
10
383.782027
20
1557.921692
11
382.515392
21
1555.134424
0
LINE
8
0
10
382.515392
20
1555.134424
11
381.072491
21
1552.437449
0
LINE
8
0
10
381.072491
20
1552.437449
11
379.458293
21
1549.839373
0
LINE
8
0
10
379.458293
20
1549.839373
11
377.677766
21
1547.348801
0
LINE
8
0
10
377.677766
20
1547.348801
11
375.735879
21
1544.974340
0
LINE
8
0
10
375.735879
20
1544.974340
11
373.637601
21
1542.724596
0
LINE
8
0
10
373.637601
20
1542.724596
11
371.387900
21
1540.608175
0
LINE
8
0
10
371.387900
20
1540.608175
11
368.991746
21
1538.633682
0
LINE
8
0
10
368.991746
20
1538.633682
11
366.454106
21
1536.809725
0
LINE
8
0
10
366.454106
20
1536.809725
11
363.779950
21
1535.144908
0
LINE
8
0
10
363.779950
20
1535.144908
11
361.001099
21
1533.661429
0
LINE
8
0
10
361.001099
20
1533.661429
11
358.152686
21
1532.375748
0
LINE
8
0
10
358.152686
20
1532.375748
11
355.244648
21
1531.287863
0
LINE
8
0
10
355.244648
20
1531.287863
11
352.286923
21
1530.397776
0
LINE
8
0
10
352.286923
20
1530.397776
11
349.289448
21
1529.705486
0
LINE
8
0
10
349.289448
20
1529.705486
11
346.262161
21
1529.210993
0
LINE
8
0
10
346.262161
20
1529.210993
11
343.214999
21
1528.914297
0
LINE
8
0
10
343.214999
20
1528.914297
11
340.157900
21
1528.815399
0
LINE
8
0
10
340.157900
20
1528.815399
11
337.100801
21
1528.914297
0
LINE
8
0
10
337.100801
20
1528.914297
11
334.053639
21
1529.210993
0
LINE
8
0
10
334.053639
20
1529.210993
11
331.026352
21
1529.705486
0
LINE
8
0
10
331.026352
20
1529.705486
11
328.028877
21
1530.397776
0
LINE
8
0
10
328.028877
20
1530.397776
11
325.071152
21
1531.287863
0
LINE
8
0
10
325.071152
20
1531.287863
11
322.163114
21
1532.375748
0
LINE
8
0
10
322.163114
20
1532.375748
11
319.314701
21
1533.661429
0
LINE
8
0
10
319.314701
20
1533.661429
11
316.535850
21
1535.144908
0
LINE
8
0
10
316.535850
20
1535.144908
11
313.861694
21
1536.809725
0
LINE
8
0
10
313.861694
20
1536.809725
11
311.324054
21
1538.633682
0
LINE
8
0
10
311.324054
20
1538.633682
11
308.927900
21
1540.608175
0
LINE
8
0
10
308.927900
20
1540.608175
11
306.678199
21
1542.724596
0
LINE
8
0
10
306.678199
20
1542.724596
11
304.579921
21
1544.974340
0
LINE
8
0
10
304.579921
20
1544.974340
11
302.638034
21
1547.348801
0
LINE
8
0
10
302.638034
20
1547.348801
11
300.857507
21
1549.839373
0
LINE
8
0
10
300.857507
20
1549.839373
11
299.243309
21
1552.437449
0
LINE
8
0
10
299.243309
20
1552.437449
11
297.800408
21
1555.134424
0
LINE
8
0
10
297.800408
20
1555.134424
11
296.533773
21
1557.921692
0
LINE
8
0
10
296.533773
20
1557.921692
11
295.448373
21
1560.790646
0
LINE
8
0
10
295.448373
20
1560.790646
11
294.549177
21
1563.732680
0
LINE
8
0
10
294.549177
20
1563.732680
11
293.841152
21
1566.739189
0
LINE
8
0
10
293.841152
20
1566.739189
11
293.329269
21
1569.801566
0
LINE
8
0
10
293.329269
20
1569.801566
11
293.018495
21
1572.911205
0
LINE
8
0
10
293.018495
20
1572.911205
11
292.913800
21
1576.059500
0
LINE
8
0
10
292.913800
20
1576.059500
11
293.018495
21
1579.207795
0
LINE
8
0
10
293.018495
20
1579.207795
11
293.329269
21
1582.317434
0
LINE
8
0
10
293.329269
20
1582.317434
11
293.841153
21
1585.379811
0
LINE
8
0
10
293.841153
20
1585.379811
11
294.549177
21
1588.386320
0
LINE
8
0
10
294.549177
20
1588.386320
11
295.448373
21
1591.328354
0
LINE
8
0
10
295.448373
20
1591.328354
11
296.533773
21
1594.197308
0
LINE
8
0
10
296.533773
20
1594.197308
11
297.800408
21
1596.984575
0
LINE
8
0
10
297.800408
20
1596.984575
11
299.243309
21
1599.681550
0
LINE
8
0
10
299.243309
20
1599.681550
11
300.857508
21
1602.279626
0
LINE
8
0
10
300.857508
20
1602.279626
11
302.638034
21
1604.770198
0
LINE
8
0
10
302.638034
20
1604.770198
11
304.579921
21
1607.144659
0
LINE
8
0
10
304.579921
20
1607.144659
11
306.678199
21
1609.394403
0
LINE
8
0
10
306.678199
20
1609.394403
11
308.927900
21
1611.510824
0
LINE
8
0
10
308.927900
20
1611.510824
11
311.324055
21
1613.485317
0
LINE
8
0
10
311.324055
20
1613.485317
11
313.861694
21
1615.309274
0
LINE
8
0
10
313.861694
20
1615.309274
11
316.535850
21
1616.974091
0
LINE
8
0
10
316.535850
20
1616.974091
11
319.314701
21
1618.457570
0
LINE
8
0
10
319.314701
20
1618.457570
11
322.163115
21
1619.743251
0
LINE
8
0
10
322.163115
20
1619.743251
11
325.071152
21
1620.831135
0
LINE
8
0
10
325.071152
20
1620.831135
11
328.028877
21
1621.721223
0
LINE
8
0
10
328.028877
20
1621.721223
11
331.026352
21
1622.413513
0
LINE
8
0
10
331.026352
20
1622.413513
11
334.053639
21
1622.908006
0
LINE
8
0
10
334.053639
20
1622.908006
11
337.100801
21
1623.204701
0
LINE
8
0
10
337.100801
20
1623.204701
11
340.157900
21
1623.303600
0
LINE
8
0
10
340.157900
20
1623.303600
11
343.214999
21
1623.204701
0
LINE
8
0
10
343.214999
20
1623.204701
11
346.262161
21
1622.908006
0
LINE
8
0
10
346.262161
20
1622.908006
11
349.289448
21
1622.413513
0
LINE
8
0
10
349.289448
20
1622.413513
11
352.286923
21
1621.721223
0
LINE
8
0
10
352.286923
20
1621.721223
11
355.244648
21
1620.831135
0
LINE
8
0
10
355.244648
20
1620.831135
11
358.152685
21
1619.743251
0
LINE
8
0
10
358.152685
20
1619.743251
11
361.001099
21
1618.457570
0
LINE
8
0
10
361.001099
20
1618.457570
11
363.779950
21
1616.974091
0
LINE
8
0
10
363.779950
20
1616.974091
11
366.454106
21
1615.309274
0
LINE
8
0
10
366.454106
20
1615.309274
11
368.991745
21
1613.485317
0
LINE
8
0
10
368.991745
20
1613.485317
11
371.387900
21
1611.510824
0
LINE
8
0
10
371.387900
20
1611.510824
11
373.637601
21
1609.394403
0
LINE
8
0
10
373.637601
20
1609.394403
11
375.735879
21
1607.144659
0
LINE
8
0
10
375.735879
20
1607.144659
11
377.677766
21
1604.770198
0
LINE
8
0
10
377.677766
20
1604.770198
11
379.458292
21
1602.279626
0
LINE
8
0
10
379.458292
20
1602.279626
11
381.072491
21
1599.681550
0
LINE
8
0
10
381.072491
20
1599.681550
11
382.515392
21
1596.984575
0
LINE
8
0
10
382.515392
20
1596.984575
11
383.782027
21
1594.197308
0
LINE
8
0
10
383.782027
20
1594.197308
11
384.867427
21
1591.328354
0
LINE
8
0
10
384.867427
20
1591.328354
11
385.766623
21
1588.386320
0
LINE
8
0
10
385.766623
20
1588.386320
11
386.474647
21
1585.379811
0
LINE
8
0
10
386.474647
20
1585.379811
11
386.986531
21
1582.317434
0
LINE
8
0
10
386.986531
20
1582.317434
11
387.297305
21
1579.207795
0
LINE
8
0
10
387.297305
20
1579.207795
11
387.402000
21
1576.059500
0
LINE
8
0
10
387.402000
20
1576.059500
11
387.402000
21
1576.059500
 0 
ENDSEC
 0 
EOF